<mxfile host="65bd71144e">
    <diagram id="yGKFn3D03RFovCp2P05H" name="Visitor View">
        <mxGraphModel dx="927" dy="670" grid="1" gridSize="10" guides="1" tooltips="1" connect="1" arrows="1" fold="1" page="1" pageScale="1" pageWidth="850" pageHeight="1100" math="0" shadow="0">
            <root>
                <mxCell id="0"/>
                <mxCell id="1" parent="0"/>
                <mxCell id="XhQDC6N8RoV4bCvyvq7E-1" value="" style="whiteSpace=wrap;html=1;fillColor=#0B0C10;" vertex="1" parent="1">
                    <mxGeometry x="335" y="270" width="205" height="280" as="geometry"/>
                </mxCell>
                <object label="Item" id="XhQDC6N8RoV4bCvyvq7E-24">
                    <mxCell style="whiteSpace=wrap;html=1;strokeColor=#45A29E;fillColor=#1F2833;" vertex="1" parent="1">
                        <mxGeometry x="380" y="340" width="30" height="30" as="geometry"/>
                    </mxCell>
                </object>
                <mxCell id="pDI6ZPoX4qIVBJIhAqDQ-3" value="" style="edgeStyle=isometricEdgeStyle;html=1;strokeColor=#66FCF1;elbow=vertical;exitX=0.75;exitY=1;exitDx=0;exitDy=0;" edge="1" parent="1" source="XhQDC6N8RoV4bCvyvq7E-25">
                    <mxGeometry relative="1" as="geometry">
                        <mxPoint x="540" y="340" as="targetPoint"/>
                    </mxGeometry>
                </mxCell>
                <mxCell id="pDI6ZPoX4qIVBJIhAqDQ-15" value="" style="edgeStyle=elbowEdgeStyle;elbow=vertical;html=1;strokeColor=#66FCF1;entryX=0.75;entryY=0;entryDx=0;entryDy=0;" edge="1" parent="1" source="XhQDC6N8RoV4bCvyvq7E-25" target="pDI6ZPoX4qIVBJIhAqDQ-5">
                    <mxGeometry relative="1" as="geometry"/>
                </mxCell>
                <mxCell id="XhQDC6N8RoV4bCvyvq7E-25" value="Nav Bar (Login) (Home)" style="whiteSpace=wrap;html=1;fillColor=#1F2833;strokeColor=#45A29E;" vertex="1" parent="1">
                    <mxGeometry x="340" y="310" width="190" height="10" as="geometry"/>
                </mxCell>
                <mxCell id="XhQDC6N8RoV4bCvyvq7E-70" style="edgeStyle=none;html=1;strokeColor=#66FCF1;" edge="1" parent="1" source="XhQDC6N8RoV4bCvyvq7E-26">
                    <mxGeometry relative="1" as="geometry">
                        <mxPoint x="610" y="340" as="targetPoint"/>
                    </mxGeometry>
                </mxCell>
                <object label="Item" id="XhQDC6N8RoV4bCvyvq7E-26">
                    <mxCell style="whiteSpace=wrap;html=1;strokeColor=#45A29E;fillColor=#1F2833;" vertex="1" parent="1">
                        <mxGeometry x="500" y="340" width="30" height="30" as="geometry"/>
                    </mxCell>
                </object>
                <object label="Item" id="XhQDC6N8RoV4bCvyvq7E-27">
                    <mxCell style="whiteSpace=wrap;html=1;strokeColor=#45A29E;fillColor=#1F2833;" vertex="1" parent="1">
                        <mxGeometry x="460" y="340" width="30" height="30" as="geometry"/>
                    </mxCell>
                </object>
                <object label="Item" id="XhQDC6N8RoV4bCvyvq7E-28">
                    <mxCell style="whiteSpace=wrap;html=1;strokeColor=#45A29E;fillColor=#1F2833;" vertex="1" parent="1">
                        <mxGeometry x="340" y="340" width="30" height="30" as="geometry"/>
                    </mxCell>
                </object>
                <object label="Item" id="XhQDC6N8RoV4bCvyvq7E-29">
                    <mxCell style="whiteSpace=wrap;html=1;strokeColor=#45A29E;fillColor=#1F2833;" vertex="1" parent="1">
                        <mxGeometry x="420" y="340" width="30" height="30" as="geometry"/>
                    </mxCell>
                </object>
                <object label="Item" id="XhQDC6N8RoV4bCvyvq7E-30">
                    <mxCell style="whiteSpace=wrap;html=1;strokeColor=#45A29E;fillColor=#1F2833;" vertex="1" parent="1">
                        <mxGeometry x="380" y="380" width="30" height="30" as="geometry"/>
                    </mxCell>
                </object>
                <object label="Item" id="XhQDC6N8RoV4bCvyvq7E-31">
                    <mxCell style="whiteSpace=wrap;html=1;strokeColor=#45A29E;fillColor=#1F2833;" vertex="1" parent="1">
                        <mxGeometry x="500" y="380" width="30" height="30" as="geometry"/>
                    </mxCell>
                </object>
                <object label="Item" id="XhQDC6N8RoV4bCvyvq7E-32">
                    <mxCell style="whiteSpace=wrap;html=1;strokeColor=#45A29E;fillColor=#1F2833;" vertex="1" parent="1">
                        <mxGeometry x="460" y="380" width="30" height="30" as="geometry"/>
                    </mxCell>
                </object>
                <object label="Item" id="XhQDC6N8RoV4bCvyvq7E-33">
                    <mxCell style="whiteSpace=wrap;html=1;strokeColor=#45A29E;fillColor=#1F2833;" vertex="1" parent="1">
                        <mxGeometry x="340" y="380" width="30" height="30" as="geometry"/>
                    </mxCell>
                </object>
                <object label="Item" id="XhQDC6N8RoV4bCvyvq7E-34">
                    <mxCell style="whiteSpace=wrap;html=1;strokeColor=#45A29E;fillColor=#1F2833;" vertex="1" parent="1">
                        <mxGeometry x="420" y="380" width="30" height="30" as="geometry"/>
                    </mxCell>
                </object>
                <object label="Item" id="XhQDC6N8RoV4bCvyvq7E-35">
                    <mxCell style="whiteSpace=wrap;html=1;strokeColor=#45A29E;fillColor=#1F2833;" vertex="1" parent="1">
                        <mxGeometry x="380" y="420" width="30" height="30" as="geometry"/>
                    </mxCell>
                </object>
                <object label="Item" id="XhQDC6N8RoV4bCvyvq7E-36">
                    <mxCell style="whiteSpace=wrap;html=1;strokeColor=#45A29E;fillColor=#1F2833;" vertex="1" parent="1">
                        <mxGeometry x="500" y="420" width="30" height="30" as="geometry"/>
                    </mxCell>
                </object>
                <object label="Item" id="XhQDC6N8RoV4bCvyvq7E-37">
                    <mxCell style="whiteSpace=wrap;html=1;strokeColor=#45A29E;fillColor=#1F2833;" vertex="1" parent="1">
                        <mxGeometry x="460" y="420" width="30" height="30" as="geometry"/>
                    </mxCell>
                </object>
                <object label="Item" id="XhQDC6N8RoV4bCvyvq7E-38">
                    <mxCell style="whiteSpace=wrap;html=1;strokeColor=#45A29E;fillColor=#1F2833;" vertex="1" parent="1">
                        <mxGeometry x="340" y="420" width="30" height="30" as="geometry"/>
                    </mxCell>
                </object>
                <object label="Item" id="XhQDC6N8RoV4bCvyvq7E-39">
                    <mxCell style="whiteSpace=wrap;html=1;strokeColor=#45A29E;fillColor=#1F2833;" vertex="1" parent="1">
                        <mxGeometry x="420" y="420" width="30" height="30" as="geometry"/>
                    </mxCell>
                </object>
                <object label="Item" id="XhQDC6N8RoV4bCvyvq7E-40">
                    <mxCell style="whiteSpace=wrap;html=1;strokeColor=#45A29E;fillColor=#1F2833;" vertex="1" parent="1">
                        <mxGeometry x="380" y="460" width="30" height="30" as="geometry"/>
                    </mxCell>
                </object>
                <object label="Item" id="XhQDC6N8RoV4bCvyvq7E-41">
                    <mxCell style="whiteSpace=wrap;html=1;strokeColor=#45A29E;fillColor=#1F2833;" vertex="1" parent="1">
                        <mxGeometry x="500" y="460" width="30" height="30" as="geometry"/>
                    </mxCell>
                </object>
                <object label="Item" id="XhQDC6N8RoV4bCvyvq7E-42">
                    <mxCell style="whiteSpace=wrap;html=1;strokeColor=#45A29E;fillColor=#1F2833;" vertex="1" parent="1">
                        <mxGeometry x="460" y="460" width="30" height="30" as="geometry"/>
                    </mxCell>
                </object>
                <object label="Item" id="XhQDC6N8RoV4bCvyvq7E-43">
                    <mxCell style="whiteSpace=wrap;html=1;strokeColor=#45A29E;fillColor=#1F2833;" vertex="1" parent="1">
                        <mxGeometry x="340" y="460" width="30" height="30" as="geometry"/>
                    </mxCell>
                </object>
                <object label="Item" id="XhQDC6N8RoV4bCvyvq7E-44">
                    <mxCell style="whiteSpace=wrap;html=1;strokeColor=#45A29E;fillColor=#1F2833;" vertex="1" parent="1">
                        <mxGeometry x="420" y="460" width="30" height="30" as="geometry"/>
                    </mxCell>
                </object>
                <object label="Item" id="XhQDC6N8RoV4bCvyvq7E-45">
                    <mxCell style="whiteSpace=wrap;html=1;strokeColor=#45A29E;fillColor=#1F2833;" vertex="1" parent="1">
                        <mxGeometry x="380" y="500" width="30" height="30" as="geometry"/>
                    </mxCell>
                </object>
                <object label="Item" id="XhQDC6N8RoV4bCvyvq7E-46">
                    <mxCell style="whiteSpace=wrap;html=1;strokeColor=#45A29E;fillColor=#1F2833;" vertex="1" parent="1">
                        <mxGeometry x="500" y="500" width="30" height="30" as="geometry"/>
                    </mxCell>
                </object>
                <object label="Item" id="XhQDC6N8RoV4bCvyvq7E-47">
                    <mxCell style="whiteSpace=wrap;html=1;strokeColor=#45A29E;fillColor=#1F2833;" vertex="1" parent="1">
                        <mxGeometry x="460" y="500" width="30" height="30" as="geometry"/>
                    </mxCell>
                </object>
                <object label="Item" id="XhQDC6N8RoV4bCvyvq7E-48">
                    <mxCell style="whiteSpace=wrap;html=1;strokeColor=#45A29E;fillColor=#1F2833;" vertex="1" parent="1">
                        <mxGeometry x="340" y="500" width="30" height="30" as="geometry"/>
                    </mxCell>
                </object>
                <object label="Item" id="XhQDC6N8RoV4bCvyvq7E-49">
                    <mxCell style="whiteSpace=wrap;html=1;strokeColor=#45A29E;fillColor=#1F2833;" vertex="1" parent="1">
                        <mxGeometry x="420" y="500" width="30" height="30" as="geometry"/>
                    </mxCell>
                </object>
                <mxCell id="XhQDC6N8RoV4bCvyvq7E-55" value="The Pokemon Exchange" style="whiteSpace=wrap;html=1;fillColor=#1F2833;strokeColor=#66FCF1;" vertex="1" parent="1">
                    <mxGeometry x="342.5" y="280" width="190" height="20" as="geometry"/>
                </mxCell>
                <object label="Item" id="XhQDC6N8RoV4bCvyvq7E-57">
                    <mxCell style="whiteSpace=wrap;html=1;strokeColor=#45A29E;fillColor=#1F2833;" vertex="1" parent="1">
                        <mxGeometry x="500" y="500" width="30" height="30" as="geometry"/>
                    </mxCell>
                </object>
                <object label="Item" id="XhQDC6N8RoV4bCvyvq7E-58">
                    <mxCell style="whiteSpace=wrap;html=1;strokeColor=#45A29E;fillColor=#1F2833;" vertex="1" parent="1">
                        <mxGeometry x="460" y="500" width="30" height="30" as="geometry"/>
                    </mxCell>
                </object>
                <object label="Item" id="XhQDC6N8RoV4bCvyvq7E-59">
                    <mxCell style="whiteSpace=wrap;html=1;strokeColor=#45A29E;fillColor=#1F2833;" vertex="1" parent="1">
                        <mxGeometry x="420" y="500" width="30" height="30" as="geometry"/>
                    </mxCell>
                </object>
                <object label="Item" id="XhQDC6N8RoV4bCvyvq7E-60">
                    <mxCell style="whiteSpace=wrap;html=1;strokeColor=#45A29E;fillColor=#1F2833;" vertex="1" parent="1">
                        <mxGeometry x="380" y="500" width="30" height="30" as="geometry"/>
                    </mxCell>
                </object>
                <object label="Item" id="XhQDC6N8RoV4bCvyvq7E-61">
                    <mxCell style="whiteSpace=wrap;html=1;strokeColor=#45A29E;fillColor=#1F2833;" vertex="1" parent="1">
                        <mxGeometry x="340" y="500" width="30" height="30" as="geometry"/>
                    </mxCell>
                </object>
                <object label="Item" id="XhQDC6N8RoV4bCvyvq7E-62">
                    <mxCell style="whiteSpace=wrap;html=1;strokeColor=#45A29E;fillColor=#1F2833;" vertex="1" parent="1">
                        <mxGeometry x="340" y="460" width="30" height="30" as="geometry"/>
                    </mxCell>
                </object>
                <object label="Item" id="XhQDC6N8RoV4bCvyvq7E-63">
                    <mxCell style="whiteSpace=wrap;html=1;strokeColor=#45A29E;fillColor=#1F2833;" vertex="1" parent="1">
                        <mxGeometry x="380" y="460" width="30" height="30" as="geometry"/>
                    </mxCell>
                </object>
                <object label="Item" id="XhQDC6N8RoV4bCvyvq7E-64">
                    <mxCell style="whiteSpace=wrap;html=1;strokeColor=#45A29E;fillColor=#1F2833;" vertex="1" parent="1">
                        <mxGeometry x="420" y="460" width="30" height="30" as="geometry"/>
                    </mxCell>
                </object>
                <object label="Item" id="XhQDC6N8RoV4bCvyvq7E-65">
                    <mxCell style="whiteSpace=wrap;html=1;strokeColor=#45A29E;fillColor=#1F2833;" vertex="1" parent="1">
                        <mxGeometry x="460" y="460" width="30" height="30" as="geometry"/>
                    </mxCell>
                </object>
                <object label="Item" id="XhQDC6N8RoV4bCvyvq7E-66">
                    <mxCell style="whiteSpace=wrap;html=1;strokeColor=#45A29E;fillColor=#1F2833;" vertex="1" parent="1">
                        <mxGeometry x="500" y="460" width="30" height="30" as="geometry"/>
                    </mxCell>
                </object>
                <object label="Item" id="XhQDC6N8RoV4bCvyvq7E-67">
                    <mxCell style="whiteSpace=wrap;html=1;strokeColor=#45A29E;fillColor=#1F2833;" vertex="1" parent="1">
                        <mxGeometry x="500" y="420" width="30" height="30" as="geometry"/>
                    </mxCell>
                </object>
                <object label="Item" id="XhQDC6N8RoV4bCvyvq7E-68">
                    <mxCell style="whiteSpace=wrap;html=1;strokeColor=#45A29E;fillColor=#1F2833;" vertex="1" parent="1">
                        <mxGeometry x="460" y="420" width="30" height="30" as="geometry"/>
                    </mxCell>
                </object>
                <mxCell id="XhQDC6N8RoV4bCvyvq7E-71" value="" style="whiteSpace=wrap;html=1;fillColor=#0B0C10;" vertex="1" parent="1">
                    <mxGeometry x="610" y="335" width="205" height="280" as="geometry"/>
                </mxCell>
                <mxCell id="XhQDC6N8RoV4bCvyvq7E-72" value="Nav Bar (Login) (Home)" style="whiteSpace=wrap;html=1;fillColor=#1F2833;strokeColor=#45A29E;" vertex="1" parent="1">
                    <mxGeometry x="616.25" y="375" width="190" height="10" as="geometry"/>
                </mxCell>
                <mxCell id="XhQDC6N8RoV4bCvyvq7E-73" value="The Pokemon Exchange" style="whiteSpace=wrap;html=1;fillColor=#1F2833;strokeColor=#66FCF1;" vertex="1" parent="1">
                    <mxGeometry x="618.75" y="345" width="190" height="20" as="geometry"/>
                </mxCell>
                <object label="" id="XhQDC6N8RoV4bCvyvq7E-74">
                    <mxCell style="whiteSpace=wrap;html=1;strokeColor=#45A29E;fillColor=#1F2833;" vertex="1" parent="1">
                        <mxGeometry x="618.75" y="395" width="191.25" height="180" as="geometry"/>
                    </mxCell>
                </object>
                <object label="Item Name" id="XhQDC6N8RoV4bCvyvq7E-75">
                    <mxCell style="whiteSpace=wrap;html=1;strokeColor=#45A29E;fillColor=#1F2833;" vertex="1" parent="1">
                        <mxGeometry x="630" y="405" width="160" height="20" as="geometry"/>
                    </mxCell>
                </object>
                <object label="Item Description" id="XhQDC6N8RoV4bCvyvq7E-76">
                    <mxCell style="whiteSpace=wrap;html=1;strokeColor=#45A29E;fillColor=#1F2833;" vertex="1" parent="1">
                        <mxGeometry x="630" y="435" width="160" height="70" as="geometry"/>
                    </mxCell>
                </object>
                <object label="Item Quantity" id="XhQDC6N8RoV4bCvyvq7E-77">
                    <mxCell style="whiteSpace=wrap;html=1;strokeColor=#45A29E;fillColor=#1F2833;" vertex="1" parent="1">
                        <mxGeometry x="630" y="515" width="160" height="20" as="geometry"/>
                    </mxCell>
                </object>
                <mxCell id="pDI6ZPoX4qIVBJIhAqDQ-5" value="" style="whiteSpace=wrap;html=1;fillColor=#0B0C10;" vertex="1" parent="1">
                    <mxGeometry x="80" y="350" width="205" height="280" as="geometry"/>
                </mxCell>
                <mxCell id="pDI6ZPoX4qIVBJIhAqDQ-6" value="Nav Bar (Login) (Home)" style="whiteSpace=wrap;html=1;fillColor=#1F2833;strokeColor=#45A29E;" vertex="1" parent="1">
                    <mxGeometry x="86.25" y="390" width="190" height="10" as="geometry"/>
                </mxCell>
                <mxCell id="pDI6ZPoX4qIVBJIhAqDQ-7" value="The Pokemon Exchange" style="whiteSpace=wrap;html=1;fillColor=#1F2833;strokeColor=#66FCF1;" vertex="1" parent="1">
                    <mxGeometry x="88.75" y="360" width="190" height="20" as="geometry"/>
                </mxCell>
                <object label="" id="pDI6ZPoX4qIVBJIhAqDQ-8">
                    <mxCell style="whiteSpace=wrap;html=1;strokeColor=#45A29E;fillColor=#1F2833;" vertex="1" parent="1">
                        <mxGeometry x="88.75" y="410" width="191.25" height="180" as="geometry"/>
                    </mxCell>
                </object>
                <object label="First Name" id="pDI6ZPoX4qIVBJIhAqDQ-9">
                    <mxCell style="whiteSpace=wrap;html=1;strokeColor=#45A29E;fillColor=#1F2833;" vertex="1" parent="1">
                        <mxGeometry x="100" y="420" width="160" height="20" as="geometry"/>
                    </mxCell>
                </object>
                <mxCell id="pDI6ZPoX4qIVBJIhAqDQ-16" style="edgeStyle=elbowEdgeStyle;html=1;strokeColor=#66FCF1;" edge="1" parent="1" source="pDI6ZPoX4qIVBJIhAqDQ-11" target="XhQDC6N8RoV4bCvyvq7E-1">
                    <mxGeometry relative="1" as="geometry"/>
                </mxCell>
                <object label="Submit" id="pDI6ZPoX4qIVBJIhAqDQ-11">
                    <mxCell style="whiteSpace=wrap;html=1;strokeColor=#45A29E;fillColor=#1F2833;" vertex="1" parent="1">
                        <mxGeometry x="101.25" y="600" width="160" height="20" as="geometry"/>
                    </mxCell>
                </object>
                <object label="Last Name" id="pDI6ZPoX4qIVBJIhAqDQ-12">
                    <mxCell style="whiteSpace=wrap;html=1;strokeColor=#45A29E;fillColor=#1F2833;" vertex="1" parent="1">
                        <mxGeometry x="101.25" y="455" width="160" height="20" as="geometry"/>
                    </mxCell>
                </object>
                <object label="Username" id="pDI6ZPoX4qIVBJIhAqDQ-13">
                    <mxCell style="whiteSpace=wrap;html=1;strokeColor=#45A29E;fillColor=#1F2833;" vertex="1" parent="1">
                        <mxGeometry x="100" y="495" width="160" height="20" as="geometry"/>
                    </mxCell>
                </object>
                <object label="Password" id="pDI6ZPoX4qIVBJIhAqDQ-14">
                    <mxCell style="whiteSpace=wrap;html=1;strokeColor=#45A29E;fillColor=#1F2833;" vertex="1" parent="1">
                        <mxGeometry x="100" y="530" width="160" height="20" as="geometry"/>
                    </mxCell>
                </object>
            </root>
        </mxGraphModel>
    </diagram>
    <diagram id="kSnwPJumVlJChaEkjxa4" name="User View">
        <mxGraphModel dx="1082" dy="782" grid="1" gridSize="10" guides="1" tooltips="1" connect="1" arrows="1" fold="1" page="1" pageScale="1" pageWidth="850" pageHeight="1100" math="0" shadow="0">
            <root>
                <mxCell id="0"/>
                <mxCell id="1" parent="0"/>
                <mxCell id="kf3U5FdoiFHYD40asA9v-1" value="" style="whiteSpace=wrap;html=1;fillColor=#0B0C10;" vertex="1" parent="1">
                    <mxGeometry x="335" y="270" width="205" height="280" as="geometry"/>
                </mxCell>
                <object label="Item" id="kf3U5FdoiFHYD40asA9v-2">
                    <mxCell style="whiteSpace=wrap;html=1;strokeColor=#45A29E;fillColor=#1F2833;" vertex="1" parent="1">
                        <mxGeometry x="380" y="340" width="30" height="30" as="geometry"/>
                    </mxCell>
                </object>
                <mxCell id="kf3U5FdoiFHYD40asA9v-3" value="" style="edgeStyle=isometricEdgeStyle;html=1;strokeColor=#66FCF1;elbow=vertical;exitX=0.75;exitY=1;exitDx=0;exitDy=0;" edge="1" parent="1" source="kf3U5FdoiFHYD40asA9v-5">
                    <mxGeometry relative="1" as="geometry">
                        <mxPoint x="540" y="340.0000000000001" as="targetPoint"/>
                    </mxGeometry>
                </mxCell>
                <mxCell id="kf3U5FdoiFHYD40asA9v-4" value="" style="edgeStyle=elbowEdgeStyle;elbow=vertical;html=1;strokeColor=#66FCF1;entryX=0.75;entryY=0;entryDx=0;entryDy=0;" edge="1" parent="1" source="kf3U5FdoiFHYD40asA9v-5" target="kf3U5FdoiFHYD40asA9v-51">
                    <mxGeometry relative="1" as="geometry"/>
                </mxCell>
                <mxCell id="kf3U5FdoiFHYD40asA9v-5" value="Nav Bar (Login) (Home)" style="whiteSpace=wrap;html=1;fillColor=#1F2833;strokeColor=#45A29E;" vertex="1" parent="1">
                    <mxGeometry x="340" y="310" width="190" height="10" as="geometry"/>
                </mxCell>
                <mxCell id="kf3U5FdoiFHYD40asA9v-6" style="edgeStyle=none;html=1;strokeColor=#66FCF1;" edge="1" parent="1" source="kf3U5FdoiFHYD40asA9v-7">
                    <mxGeometry relative="1" as="geometry">
                        <mxPoint x="610" y="340.0000000000001" as="targetPoint"/>
                    </mxGeometry>
                </mxCell>
                <object label="Item" id="kf3U5FdoiFHYD40asA9v-7">
                    <mxCell style="whiteSpace=wrap;html=1;strokeColor=#45A29E;fillColor=#1F2833;" vertex="1" parent="1">
                        <mxGeometry x="500" y="340" width="30" height="30" as="geometry"/>
                    </mxCell>
                </object>
                <object label="Item" id="kf3U5FdoiFHYD40asA9v-8">
                    <mxCell style="whiteSpace=wrap;html=1;strokeColor=#45A29E;fillColor=#1F2833;" vertex="1" parent="1">
                        <mxGeometry x="460" y="340" width="30" height="30" as="geometry"/>
                    </mxCell>
                </object>
                <object label="Item" id="kf3U5FdoiFHYD40asA9v-9">
                    <mxCell style="whiteSpace=wrap;html=1;strokeColor=#45A29E;fillColor=#1F2833;" vertex="1" parent="1">
                        <mxGeometry x="340" y="340" width="30" height="30" as="geometry"/>
                    </mxCell>
                </object>
                <object label="Item" id="kf3U5FdoiFHYD40asA9v-10">
                    <mxCell style="whiteSpace=wrap;html=1;strokeColor=#45A29E;fillColor=#1F2833;" vertex="1" parent="1">
                        <mxGeometry x="420" y="340" width="30" height="30" as="geometry"/>
                    </mxCell>
                </object>
                <object label="Item" id="kf3U5FdoiFHYD40asA9v-11">
                    <mxCell style="whiteSpace=wrap;html=1;strokeColor=#45A29E;fillColor=#1F2833;" vertex="1" parent="1">
                        <mxGeometry x="380" y="380" width="30" height="30" as="geometry"/>
                    </mxCell>
                </object>
                <object label="Item" id="kf3U5FdoiFHYD40asA9v-12">
                    <mxCell style="whiteSpace=wrap;html=1;strokeColor=#45A29E;fillColor=#1F2833;" vertex="1" parent="1">
                        <mxGeometry x="500" y="380" width="30" height="30" as="geometry"/>
                    </mxCell>
                </object>
                <object label="Item" id="kf3U5FdoiFHYD40asA9v-13">
                    <mxCell style="whiteSpace=wrap;html=1;strokeColor=#45A29E;fillColor=#1F2833;" vertex="1" parent="1">
                        <mxGeometry x="460" y="380" width="30" height="30" as="geometry"/>
                    </mxCell>
                </object>
                <object label="Item" id="kf3U5FdoiFHYD40asA9v-14">
                    <mxCell style="whiteSpace=wrap;html=1;strokeColor=#45A29E;fillColor=#1F2833;" vertex="1" parent="1">
                        <mxGeometry x="340" y="380" width="30" height="30" as="geometry"/>
                    </mxCell>
                </object>
                <object label="Item" id="kf3U5FdoiFHYD40asA9v-15">
                    <mxCell style="whiteSpace=wrap;html=1;strokeColor=#45A29E;fillColor=#1F2833;" vertex="1" parent="1">
                        <mxGeometry x="420" y="380" width="30" height="30" as="geometry"/>
                    </mxCell>
                </object>
                <object label="Item" id="kf3U5FdoiFHYD40asA9v-16">
                    <mxCell style="whiteSpace=wrap;html=1;strokeColor=#45A29E;fillColor=#1F2833;" vertex="1" parent="1">
                        <mxGeometry x="380" y="420" width="30" height="30" as="geometry"/>
                    </mxCell>
                </object>
                <object label="Item" id="kf3U5FdoiFHYD40asA9v-17">
                    <mxCell style="whiteSpace=wrap;html=1;strokeColor=#45A29E;fillColor=#1F2833;" vertex="1" parent="1">
                        <mxGeometry x="500" y="420" width="30" height="30" as="geometry"/>
                    </mxCell>
                </object>
                <object label="Item" id="kf3U5FdoiFHYD40asA9v-18">
                    <mxCell style="whiteSpace=wrap;html=1;strokeColor=#45A29E;fillColor=#1F2833;" vertex="1" parent="1">
                        <mxGeometry x="460" y="420" width="30" height="30" as="geometry"/>
                    </mxCell>
                </object>
                <object label="Item" id="kf3U5FdoiFHYD40asA9v-19">
                    <mxCell style="whiteSpace=wrap;html=1;strokeColor=#45A29E;fillColor=#1F2833;" vertex="1" parent="1">
                        <mxGeometry x="340" y="420" width="30" height="30" as="geometry"/>
                    </mxCell>
                </object>
                <object label="Item" id="kf3U5FdoiFHYD40asA9v-20">
                    <mxCell style="whiteSpace=wrap;html=1;strokeColor=#45A29E;fillColor=#1F2833;" vertex="1" parent="1">
                        <mxGeometry x="420" y="420" width="30" height="30" as="geometry"/>
                    </mxCell>
                </object>
                <object label="Item" id="kf3U5FdoiFHYD40asA9v-21">
                    <mxCell style="whiteSpace=wrap;html=1;strokeColor=#45A29E;fillColor=#1F2833;" vertex="1" parent="1">
                        <mxGeometry x="380" y="460" width="30" height="30" as="geometry"/>
                    </mxCell>
                </object>
                <object label="Item" id="kf3U5FdoiFHYD40asA9v-22">
                    <mxCell style="whiteSpace=wrap;html=1;strokeColor=#45A29E;fillColor=#1F2833;" vertex="1" parent="1">
                        <mxGeometry x="500" y="460" width="30" height="30" as="geometry"/>
                    </mxCell>
                </object>
                <object label="Item" id="kf3U5FdoiFHYD40asA9v-23">
                    <mxCell style="whiteSpace=wrap;html=1;strokeColor=#45A29E;fillColor=#1F2833;" vertex="1" parent="1">
                        <mxGeometry x="460" y="460" width="30" height="30" as="geometry"/>
                    </mxCell>
                </object>
                <object label="Item" id="kf3U5FdoiFHYD40asA9v-24">
                    <mxCell style="whiteSpace=wrap;html=1;strokeColor=#45A29E;fillColor=#1F2833;" vertex="1" parent="1">
                        <mxGeometry x="340" y="460" width="30" height="30" as="geometry"/>
                    </mxCell>
                </object>
                <object label="Item" id="kf3U5FdoiFHYD40asA9v-25">
                    <mxCell style="whiteSpace=wrap;html=1;strokeColor=#45A29E;fillColor=#1F2833;" vertex="1" parent="1">
                        <mxGeometry x="420" y="460" width="30" height="30" as="geometry"/>
                    </mxCell>
                </object>
                <object label="Item" id="kf3U5FdoiFHYD40asA9v-26">
                    <mxCell style="whiteSpace=wrap;html=1;strokeColor=#45A29E;fillColor=#1F2833;" vertex="1" parent="1">
                        <mxGeometry x="380" y="500" width="30" height="30" as="geometry"/>
                    </mxCell>
                </object>
                <object label="Item" id="kf3U5FdoiFHYD40asA9v-27">
                    <mxCell style="whiteSpace=wrap;html=1;strokeColor=#45A29E;fillColor=#1F2833;" vertex="1" parent="1">
                        <mxGeometry x="500" y="500" width="30" height="30" as="geometry"/>
                    </mxCell>
                </object>
                <object label="Item" id="kf3U5FdoiFHYD40asA9v-28">
                    <mxCell style="whiteSpace=wrap;html=1;strokeColor=#45A29E;fillColor=#1F2833;" vertex="1" parent="1">
                        <mxGeometry x="460" y="500" width="30" height="30" as="geometry"/>
                    </mxCell>
                </object>
                <object label="Item" id="kf3U5FdoiFHYD40asA9v-29">
                    <mxCell style="whiteSpace=wrap;html=1;strokeColor=#45A29E;fillColor=#1F2833;" vertex="1" parent="1">
                        <mxGeometry x="340" y="500" width="30" height="30" as="geometry"/>
                    </mxCell>
                </object>
                <object label="Item" id="kf3U5FdoiFHYD40asA9v-30">
                    <mxCell style="whiteSpace=wrap;html=1;strokeColor=#45A29E;fillColor=#1F2833;" vertex="1" parent="1">
                        <mxGeometry x="420" y="500" width="30" height="30" as="geometry"/>
                    </mxCell>
                </object>
                <mxCell id="kf3U5FdoiFHYD40asA9v-31" value="The Pokemon Exchange" style="whiteSpace=wrap;html=1;fillColor=#1F2833;strokeColor=#66FCF1;" vertex="1" parent="1">
                    <mxGeometry x="342.5" y="280" width="190" height="20" as="geometry"/>
                </mxCell>
                <object label="Item" id="kf3U5FdoiFHYD40asA9v-32">
                    <mxCell style="whiteSpace=wrap;html=1;strokeColor=#45A29E;fillColor=#1F2833;" vertex="1" parent="1">
                        <mxGeometry x="500" y="500" width="30" height="30" as="geometry"/>
                    </mxCell>
                </object>
                <object label="Item" id="kf3U5FdoiFHYD40asA9v-33">
                    <mxCell style="whiteSpace=wrap;html=1;strokeColor=#45A29E;fillColor=#1F2833;" vertex="1" parent="1">
                        <mxGeometry x="460" y="500" width="30" height="30" as="geometry"/>
                    </mxCell>
                </object>
                <object label="Item" id="kf3U5FdoiFHYD40asA9v-34">
                    <mxCell style="whiteSpace=wrap;html=1;strokeColor=#45A29E;fillColor=#1F2833;" vertex="1" parent="1">
                        <mxGeometry x="420" y="500" width="30" height="30" as="geometry"/>
                    </mxCell>
                </object>
                <object label="Item" id="kf3U5FdoiFHYD40asA9v-35">
                    <mxCell style="whiteSpace=wrap;html=1;strokeColor=#45A29E;fillColor=#1F2833;" vertex="1" parent="1">
                        <mxGeometry x="380" y="500" width="30" height="30" as="geometry"/>
                    </mxCell>
                </object>
                <object label="Item" id="kf3U5FdoiFHYD40asA9v-36">
                    <mxCell style="whiteSpace=wrap;html=1;strokeColor=#45A29E;fillColor=#1F2833;" vertex="1" parent="1">
                        <mxGeometry x="340" y="500" width="30" height="30" as="geometry"/>
                    </mxCell>
                </object>
                <object label="Item" id="kf3U5FdoiFHYD40asA9v-37">
                    <mxCell style="whiteSpace=wrap;html=1;strokeColor=#45A29E;fillColor=#1F2833;" vertex="1" parent="1">
                        <mxGeometry x="340" y="460" width="30" height="30" as="geometry"/>
                    </mxCell>
                </object>
                <object label="Item" id="kf3U5FdoiFHYD40asA9v-38">
                    <mxCell style="whiteSpace=wrap;html=1;strokeColor=#45A29E;fillColor=#1F2833;" vertex="1" parent="1">
                        <mxGeometry x="380" y="460" width="30" height="30" as="geometry"/>
                    </mxCell>
                </object>
                <object label="Item" id="kf3U5FdoiFHYD40asA9v-39">
                    <mxCell style="whiteSpace=wrap;html=1;strokeColor=#45A29E;fillColor=#1F2833;" vertex="1" parent="1">
                        <mxGeometry x="420" y="460" width="30" height="30" as="geometry"/>
                    </mxCell>
                </object>
                <object label="Item" id="kf3U5FdoiFHYD40asA9v-40">
                    <mxCell style="whiteSpace=wrap;html=1;strokeColor=#45A29E;fillColor=#1F2833;" vertex="1" parent="1">
                        <mxGeometry x="460" y="460" width="30" height="30" as="geometry"/>
                    </mxCell>
                </object>
                <object label="Item" id="kf3U5FdoiFHYD40asA9v-41">
                    <mxCell style="whiteSpace=wrap;html=1;strokeColor=#45A29E;fillColor=#1F2833;" vertex="1" parent="1">
                        <mxGeometry x="500" y="460" width="30" height="30" as="geometry"/>
                    </mxCell>
                </object>
                <object label="Item" id="kf3U5FdoiFHYD40asA9v-42">
                    <mxCell style="whiteSpace=wrap;html=1;strokeColor=#45A29E;fillColor=#1F2833;" vertex="1" parent="1">
                        <mxGeometry x="500" y="420" width="30" height="30" as="geometry"/>
                    </mxCell>
                </object>
                <object label="Item" id="kf3U5FdoiFHYD40asA9v-43">
                    <mxCell style="whiteSpace=wrap;html=1;strokeColor=#45A29E;fillColor=#1F2833;" vertex="1" parent="1">
                        <mxGeometry x="460" y="420" width="30" height="30" as="geometry"/>
                    </mxCell>
                </object>
                <mxCell id="kf3U5FdoiFHYD40asA9v-44" value="" style="whiteSpace=wrap;html=1;fillColor=#0B0C10;" vertex="1" parent="1">
                    <mxGeometry x="610" y="335" width="205" height="280" as="geometry"/>
                </mxCell>
                <mxCell id="kf3U5FdoiFHYD40asA9v-45" value="Nav Bar (Login) (Home)" style="whiteSpace=wrap;html=1;fillColor=#1F2833;strokeColor=#45A29E;" vertex="1" parent="1">
                    <mxGeometry x="616.25" y="375" width="190" height="10" as="geometry"/>
                </mxCell>
                <mxCell id="kf3U5FdoiFHYD40asA9v-46" value="The Pokemon Exchange" style="whiteSpace=wrap;html=1;fillColor=#1F2833;strokeColor=#66FCF1;" vertex="1" parent="1">
                    <mxGeometry x="618.75" y="345" width="190" height="20" as="geometry"/>
                </mxCell>
                <object label="" id="kf3U5FdoiFHYD40asA9v-47">
                    <mxCell style="whiteSpace=wrap;html=1;strokeColor=#45A29E;fillColor=#1F2833;" vertex="1" parent="1">
                        <mxGeometry x="618.75" y="395" width="191.25" height="180" as="geometry"/>
                    </mxCell>
                </object>
                <object label="Item Name" id="kf3U5FdoiFHYD40asA9v-48">
                    <mxCell style="whiteSpace=wrap;html=1;strokeColor=#45A29E;fillColor=#1F2833;" vertex="1" parent="1">
                        <mxGeometry x="630" y="405" width="160" height="20" as="geometry"/>
                    </mxCell>
                </object>
                <object label="Item Description" id="kf3U5FdoiFHYD40asA9v-49">
                    <mxCell style="whiteSpace=wrap;html=1;strokeColor=#45A29E;fillColor=#1F2833;" vertex="1" parent="1">
                        <mxGeometry x="630" y="435" width="160" height="70" as="geometry"/>
                    </mxCell>
                </object>
                <object label="Item Quantity" id="kf3U5FdoiFHYD40asA9v-50">
                    <mxCell style="whiteSpace=wrap;html=1;strokeColor=#45A29E;fillColor=#1F2833;" vertex="1" parent="1">
                        <mxGeometry x="630" y="515" width="160" height="20" as="geometry"/>
                    </mxCell>
                </object>
                <mxCell id="kf3U5FdoiFHYD40asA9v-51" value="" style="whiteSpace=wrap;html=1;fillColor=#0B0C10;" vertex="1" parent="1">
                    <mxGeometry x="80" y="350" width="205" height="280" as="geometry"/>
                </mxCell>
                <mxCell id="kf3U5FdoiFHYD40asA9v-52" value="Nav Bar (Login) (Home)" style="whiteSpace=wrap;html=1;fillColor=#1F2833;strokeColor=#45A29E;" vertex="1" parent="1">
                    <mxGeometry x="86.25" y="390" width="190" height="10" as="geometry"/>
                </mxCell>
                <mxCell id="kf3U5FdoiFHYD40asA9v-53" value="The Pokemon Exchange" style="whiteSpace=wrap;html=1;fillColor=#1F2833;strokeColor=#66FCF1;" vertex="1" parent="1">
                    <mxGeometry x="88.75" y="360" width="190" height="20" as="geometry"/>
                </mxCell>
                <object label="" id="kf3U5FdoiFHYD40asA9v-54">
                    <mxCell style="whiteSpace=wrap;html=1;strokeColor=#45A29E;fillColor=#1F2833;" vertex="1" parent="1">
                        <mxGeometry x="88.75" y="410" width="191.25" height="180" as="geometry"/>
                    </mxCell>
                </object>
                <object label="First Name" id="kf3U5FdoiFHYD40asA9v-55">
                    <mxCell style="whiteSpace=wrap;html=1;strokeColor=#45A29E;fillColor=#1F2833;" vertex="1" parent="1">
                        <mxGeometry x="100" y="420" width="160" height="20" as="geometry"/>
                    </mxCell>
                </object>
                <mxCell id="kf3U5FdoiFHYD40asA9v-56" style="edgeStyle=elbowEdgeStyle;html=1;strokeColor=#66FCF1;" edge="1" parent="1" source="kf3U5FdoiFHYD40asA9v-57" target="kf3U5FdoiFHYD40asA9v-1">
                    <mxGeometry relative="1" as="geometry"/>
                </mxCell>
                <object label="Submit" id="kf3U5FdoiFHYD40asA9v-57">
                    <mxCell style="whiteSpace=wrap;html=1;strokeColor=#45A29E;fillColor=#1F2833;" vertex="1" parent="1">
                        <mxGeometry x="101.25" y="600" width="160" height="20" as="geometry"/>
                    </mxCell>
                </object>
                <object label="Last Name" id="kf3U5FdoiFHYD40asA9v-58">
                    <mxCell style="whiteSpace=wrap;html=1;strokeColor=#45A29E;fillColor=#1F2833;" vertex="1" parent="1">
                        <mxGeometry x="101.25" y="455" width="160" height="20" as="geometry"/>
                    </mxCell>
                </object>
                <object label="Username" id="kf3U5FdoiFHYD40asA9v-59">
                    <mxCell style="whiteSpace=wrap;html=1;strokeColor=#45A29E;fillColor=#1F2833;" vertex="1" parent="1">
                        <mxGeometry x="100" y="495" width="160" height="20" as="geometry"/>
                    </mxCell>
                </object>
                <object label="Password" id="kf3U5FdoiFHYD40asA9v-60">
                    <mxCell style="whiteSpace=wrap;html=1;strokeColor=#45A29E;fillColor=#1F2833;" vertex="1" parent="1">
                        <mxGeometry x="100" y="530" width="160" height="20" as="geometry"/>
                    </mxCell>
                </object>
                <mxCell id="kf3U5FdoiFHYD40asA9v-65" style="edgeStyle=elbowEdgeStyle;html=1;entryX=1.013;entryY=0.686;entryDx=0;entryDy=0;entryPerimeter=0;strokeColor=#66FCF1;" edge="1" parent="1" source="kf3U5FdoiFHYD40asA9v-61" target="kf3U5FdoiFHYD40asA9v-1">
                    <mxGeometry relative="1" as="geometry"/>
                </mxCell>
                <object label="Delete" id="kf3U5FdoiFHYD40asA9v-61">
                    <mxCell style="whiteSpace=wrap;html=1;strokeColor=#45A29E;fillColor=#1F2833;" vertex="1" parent="1">
                        <mxGeometry x="618.75" y="580" width="91.25" height="20" as="geometry"/>
                    </mxCell>
                </object>
                <mxCell id="kf3U5FdoiFHYD40asA9v-64" style="edgeStyle=elbowEdgeStyle;html=1;entryX=0.616;entryY=1.001;entryDx=0;entryDy=0;entryPerimeter=0;strokeColor=#66FCF1;" edge="1" parent="1" source="kf3U5FdoiFHYD40asA9v-62" target="kf3U5FdoiFHYD40asA9v-44">
                    <mxGeometry relative="1" as="geometry"/>
                </mxCell>
                <object label="Edit" id="kf3U5FdoiFHYD40asA9v-62">
                    <mxCell style="whiteSpace=wrap;html=1;strokeColor=#45A29E;fillColor=#1F2833;" vertex="1" parent="1">
                        <mxGeometry x="720" y="580" width="88.75" height="20" as="geometry"/>
                    </mxCell>
                </object>
            </root>
        </mxGraphModel>
    </diagram>
</mxfile>